HIERARCHY
ROOT Hips
{
	OFFSET 0.00000 0.00000 0.00000
	CHANNELS 6 Xposition Yposition Zposition Zrotation Yrotation Xrotation 
	JOINT LHipJoint
	{
		OFFSET 0 0 0
		CHANNELS 3 Zrotation Yrotation Xrotation
		JOINT LeftUpLeg
		{
			OFFSET 1.64577 -1.42384 0.94276
			CHANNELS 3 Zrotation Yrotation Xrotation
			JOINT LeftLeg
			{
				OFFSET 2.11538 -5.81197 0.00000
				CHANNELS 3 Zrotation Yrotation Xrotation
				JOINT LeftFoot
				{
					OFFSET 2.36541 -6.49893 0.00000
					CHANNELS 3 Zrotation Yrotation Xrotation
					JOINT LeftToeBase
					{
						OFFSET 0.17759 -0.48793 1.73865
						CHANNELS 3 Zrotation Yrotation Xrotation
						End Site
						{
							OFFSET 0.00000 -0.00000 0.91205
						}
					}
				}
			}
		}
	}
	JOINT RHipJoint
	{
		OFFSET 0 0 0
		CHANNELS 3 Zrotation Yrotation Xrotation
		JOINT RightUpLeg
		{
			OFFSET -1.43750 -1.42384 0.94276
			CHANNELS 3 Zrotation Yrotation Xrotation
			JOINT RightLeg
			{
				OFFSET -2.10480 -5.78291 0.00000
				CHANNELS 3 Zrotation Yrotation Xrotation
				JOINT RightFoot
				{
					OFFSET -2.34880 -6.45329 0.00000
					CHANNELS 3 Zrotation Yrotation Xrotation
					JOINT RightToeBase
					{
						OFFSET -0.22842 -0.62757 1.80469
						CHANNELS 3 Zrotation Yrotation Xrotation
						End Site
						{
							OFFSET -0.00000 -0.00000 0.95886
						}
					}
				}
			}
		}
	}
	JOINT LowerBack
	{
		OFFSET 0 0 0
		CHANNELS 3 Zrotation Yrotation Xrotation
		JOINT Spine
		{
			OFFSET 0.06217 1.93758 -0.49272
			CHANNELS 3 Zrotation Yrotation Xrotation
			JOINT Spine1
			{
				OFFSET -0.03114 2.03621 -0.05830
				CHANNELS 3 Zrotation Yrotation Xrotation
				JOINT Neck
				{
					OFFSET 0 0 0
					CHANNELS 3 Zrotation Yrotation Xrotation
					JOINT Neck1
					{
						OFFSET 0.04421 1.41010 0.26562
						CHANNELS 3 Zrotation Yrotation Xrotation
						JOINT Head
						{
							OFFSET -0.13407 1.43847 0.06181
							CHANNELS 3 Zrotation Yrotation Xrotation
							End Site
							{
								OFFSET -0.04980 1.45844 -0.00689
							}
						}
					}
				}
				JOINT LeftShoulder
				{
					OFFSET 0 0 0
					CHANNELS 3 Zrotation Yrotation Xrotation
					JOINT LeftArm
					{
						OFFSET 2.18382 1.47753 -0.35694
						CHANNELS 3 Zrotation Yrotation Xrotation
						JOINT LeftForeArm
						{
							OFFSET 5.05460 -0.00000 0.00000
							CHANNELS 3 Zrotation Yrotation Xrotation
							JOINT LeftHand
							{
								OFFSET 3.39013 -0.00000 0.00000
								CHANNELS 3 Zrotation Yrotation Xrotation
								JOINT LeftFingerBase
								{
									OFFSET 0 0 0
									CHANNELS 3 Zrotation Yrotation Xrotation
									JOINT LeftHandIndex1
									{
										OFFSET 0.57242 -0.00000 -0.00000
										CHANNELS 3 Zrotation Yrotation Xrotation
										End Site
										{
											OFFSET 0.46150 -0.00000 -0.00000
										}
									}
								}
								JOINT LThumb
								{
									OFFSET 0 0 0
									CHANNELS 3 Zrotation Yrotation Xrotation
									End Site
									{
										OFFSET 0.46855 -0.00000 0.46855
									}
								}
							}
						}
					}
				}
				JOINT RightShoulder
				{
					OFFSET 0 0 0
					CHANNELS 3 Zrotation Yrotation Xrotation
					JOINT RightArm
					{
						OFFSET -2.06033 1.72839 -0.47437
						CHANNELS 3 Zrotation Yrotation Xrotation
						JOINT RightForeArm
						{
							OFFSET -5.07010 -0.00000 0.00000
							CHANNELS 3 Zrotation Yrotation Xrotation
							JOINT RightHand
							{
								OFFSET -3.14957 -0.00000 -0.00000
								CHANNELS 3 Zrotation Yrotation Xrotation
								JOINT RightFingerBase
								{
									OFFSET 0 0 0
									CHANNELS 3 Zrotation Yrotation Xrotation
									JOINT RightHandIndex1
									{
										OFFSET -0.71819 -0.00000 -0.00000
										CHANNELS 3 Zrotation Yrotation Xrotation
										End Site
										{
											OFFSET -0.57902 -0.00000 -0.00000
										}
									}
								}
								JOINT RThumb
								{
									OFFSET 0 0 0
									CHANNELS 3 Zrotation Yrotation Xrotation
									End Site
									{
										OFFSET -0.58786 -0.00000 0.58786
									}
								}
							}
						}
					}
				}
			}
		}
	}
}
MOTION
Frames: 14
Frame Time: .0083333
-25.2825 14.9907 -8.5931 0 0 0 0 0 0 -21 0 0 0 0 0 0 0 0 0 0 0 0 0 0 21 0 0 0 0 0 0 0 0 0 0 0 0 0 0 0 0 0 0 0 0 0 0 -16 0 0 21 0 0 11 0 0 0 -8 0 0 0 0 0 0 0 0 0 0 0 0 0 0 0 0 0 0 0 0 8 0 0 0 0 0 0 0 0 0 0 0 0 0 0 0 0 0
-25.2825 14.9907 -8.5931 1.1073 79.7704 -1.0559 0.0000 0.0000 0.0000 -23.8518 -16.4905 -0.5636 2.6975 10.1885 29.5894 2.0660 17.6749 -38.1354 0.0327 1.1679 3.2108 0.0000 0.0000 0.0000 25.7259 17.2035 -0.3805 -2.4688 -9.7809 28.2702 -2.8934 -19.5027 -43.4099 -0.2679 3.3294 -9.1973 -0.5453 1.9396 5.0835 -2.0894 2.6256 3.0009 -1.9613 1.3544 0.3114 9.4324 3.1879 -3.0509 -4.2985 4.1019 7.9423 -2.9666 2.1915 3.4953 -0.0000 -0.0000 0.0000 -87.6779 -1.3551 -14.1194 15.2600 -24.5070 -3.3330 -0.0000 -0.0000 5.7100 17.1379 9.9112 3.0382 -7.1250 0.0000 -0.0000 -8.6558 40.1942 1.0344 -0.0000 -0.0000 0.0000 85.1113 -9.5231 4.6473 -17.7257 27.8045 -4.4205 0.0000 -0.0000 -19.2414 -14.8419 0.5124 -0.1358 7.1250 -0.0000 -0.0000 9.1645 -29.3913 3.5281
-25.2829 14.9894 -8.5934 1.0417 79.7501 -1.1228 0.0000 0.0000 0.0000 -23.8612 -16.5636 -0.5197 2.6943 10.1830 29.5714 2.1338 17.5081 -38.3301 0.0507 1.4535 3.9975 0.0000 0.0000 0.0000 25.7606 17.3416 -0.3318 -2.4641 -9.7723 28.2425 -2.8207 -19.7896 -43.3303 -0.3021 3.5342 -9.7696 -0.5069 1.9787 5.0906 -2.1156 2.6794 2.9961 -2.0125 1.3822 0.3073 9.4315 3.1347 -2.9628 -4.2492 4.0336 7.8551 -2.9524 2.1584 3.4404 -0.0000 -0.0000 0.0000 -87.5915 -1.3692 -13.8925 15.2333 -24.4701 -3.3220 -0.0000 -0.0000 5.7946 17.2074 9.8480 3.0320 -7.1250 0.0000 -0.0000 -8.5844 40.1349 1.0383 -0.0000 -0.0000 0.0000 85.1662 -9.6234 4.5711 -17.7734 27.8661 -4.4428 0.0000 -0.0000 -19.4258 -15.0210 0.4733 -0.1270 7.1250 -0.0000 -0.0000 9.0289 -29.4327 3.4657
-25.2831 14.9895 -8.5943 1.2246 79.7390 -0.9130 0.0000 0.0000 0.0000 -23.9227 -16.6647 -0.4894 2.6886 10.1730 29.5387 2.2066 17.4262 -38.6191 0.0583 1.5575 4.2842 0.0000 0.0000 0.0000 25.7178 17.4096 -0.3540 -2.4665 -9.7768 28.2569 -2.8373 -19.7639 -43.3801 -0.3006 3.5253 -9.7447 -0.5844 1.9816 5.0856 -2.0993 2.6786 2.9704 -1.9528 1.3802 0.2793 9.3534 3.1060 -2.9017 -4.2170 4.0029 7.8374 -2.9281 2.1423 3.4160 0.0000 0.0000 0.0000 -87.5891 -1.3169 -13.6847 15.2237 -24.4568 -3.3180 -0.0000 -0.0000 5.8563 17.2470 9.8665 3.0451 -7.1250 0.0000 -0.0000 -8.5533 40.1573 1.0298 0.0000 0.0000 0.0000 85.1077 -9.6571 4.4995 -17.7721 27.8643 -4.4422 0.0000 -0.0000 -19.4296 -14.9572 0.3482 -0.0930 7.1250 -0.0000 -0.0000 9.0899 -29.5600 3.4618
-25.2826 14.9889 -8.5968 1.5988 79.7251 -0.5216 0.0000 0.0000 0.0000 -24.0224 -16.7121 -0.4646 2.6819 10.1613 29.5007 2.1851 17.5418 -38.6100 0.0521 1.4736 4.0530 0.0000 0.0000 0.0000 25.6184 17.3864 -0.4009 -2.4699 -9.7830 28.2769 -2.8630 -19.6718 -43.4149 -0.2923 3.4769 -9.6094 -0.6644 1.9607 5.0689 -2.1137 2.6488 2.9867 -1.9205 1.3647 0.3015 9.3757 3.1120 -2.9480 -4.2516 4.0073 7.8346 -2.9439 2.1432 3.4263 -0.0000 -0.0000 0.0000 -87.5383 -1.2961 -13.5605 15.2320 -24.4683 -3.3214 -0.0000 -0.0000 5.9134 17.2095 9.8953 3.0468 -7.1250 0.0000 -0.0000 -8.5909 40.1839 1.0287 -0.0000 -0.0000 0.0000 85.0817 -9.5742 4.4137 -17.7268 27.8059 -4.4211 0.0000 -0.0000 -19.2192 -14.7950 0.4902 -0.1295 7.1250 -0.0000 -0.0000 9.2030 -29.4137 3.5383
-25.2821 14.9888 -8.5990 1.8803 79.7131 -0.2340 0.0000 0.0000 0.0000 -24.1061 -16.7552 -0.4221 2.6735 10.1467 29.4530 2.1911 17.5793 -38.6708 0.0536 1.4944 4.1103 0.0000 0.0000 0.0000 25.5456 17.3930 -0.4339 -2.4761 -9.7942 28.3129 -2.8664 -19.6558 -43.4167 -0.2944 3.4890 -9.6433 -0.7194 1.9521 5.0736 -2.1249 2.6355 2.9930 -1.9007 1.3577 0.3031 9.3653 3.1054 -2.9401 -4.2556 3.9991 7.8031 -2.9436 2.1380 3.4129 -0.0000 0.0000 0.0000 -87.4844 -1.2670 -13.4099 15.2306 -24.4664 -3.3209 -0.0000 -0.0000 5.9843 17.2164 9.9292 3.0584 -7.1250 0.0000 -0.0000 -8.5909 40.2193 1.0212 -0.0000 0.0000 0.0000 85.0646 -9.5546 4.3257 -17.7145 27.7900 -4.4153 0.0000 -0.0000 -19.1553 -14.7753 0.5348 -0.1411 7.1250 -0.0000 -0.0000 9.2143 -29.3679 3.5530
-25.2812 14.9891 -8.6014 2.2267 79.6999 0.1135 0.0000 0.0000 0.0000 -24.2026 -16.7778 -0.3729 2.6626 10.1277 29.3913 2.1842 17.6436 -38.6909 0.0531 1.4867 4.0890 0.0000 0.0000 0.0000 25.4547 17.3746 -0.4796 -2.4860 -9.8123 28.3711 -2.8787 -19.5951 -43.4206 -0.2923 3.4770 -9.6096 -0.7835 1.9389 5.0878 -2.1385 2.6159 3.0041 -1.8782 1.3475 0.3039 9.3558 3.1053 -2.9500 -4.2655 3.9984 7.7766 -2.9451 2.1362 3.4055 0.0000 -0.0000 0.0000 -87.4209 -1.2326 -13.2675 15.2294 -24.4647 -3.3204 -0.0000 -0.0000 6.0486 17.2371 9.9757 3.0765 -7.1250 0.0000 -0.0000 -8.5815 40.2689 1.0094 0.0000 -0.0000 0.0000 85.0466 -9.5258 4.2418 -17.7025 27.7746 -4.4097 0.0000 -0.0000 -19.0951 -14.7603 0.6299 -0.1660 7.1250 -0.0000 -0.0000 9.2172 -29.2707 3.5757
-25.2802 14.9895 -8.6040 2.6341 79.6843 0.5151 0.0000 0.0000 0.0000 -24.3101 -16.7803 -0.3204 2.6508 10.1071 29.3244 2.1694 17.7183 -38.6810 0.0521 1.4723 4.0495 0.0000 0.0000 0.0000 25.3500 17.3394 -0.5226 -2.4965 -9.8315 28.4328 -2.8973 -19.5016 -43.4255 -0.2860 3.4392 -9.5040 -0.8577 1.9253 5.1128 -2.1542 2.5956 3.0250 -1.8524 1.3370 0.3085 9.3449 3.1094 -2.9934 -4.2775 4.0003 7.7591 -2.9468 2.1353 3.4080 0.0000 -0.0000 0.0000 -87.3470 -1.2117 -13.1308 15.2228 -24.4556 -3.3176 -0.0000 -0.0000 6.1108 17.2824 10.0238 3.0998 -7.1250 0.0000 -0.0000 -8.5508 40.3224 0.9944 0.0000 -0.0000 0.0000 85.0305 -9.4880 4.1678 -17.6967 27.7671 -4.4070 0.0000 -0.0000 -19.0599 -14.7987 0.6997 -0.1849 7.1250 -0.0000 -0.0000 9.1811 -29.1997 3.5771
-25.2789 14.9898 -8.6065 3.1136 79.6649 0.9856 0.0000 0.0000 0.0000 -24.4269 -16.7614 -0.2733 2.6391 10.0865 29.2572 2.1537 17.7824 -38.6583 0.0513 1.4620 4.0209 0.0000 0.0000 0.0000 25.2319 17.3050 -0.5611 -2.5076 -9.8517 28.4977 -2.9226 -19.3812 -43.4376 -0.2761 3.3798 -9.3379 -0.9512 1.9137 5.1416 -2.1683 2.5774 3.0523 -1.8144 1.3275 0.3167 9.3249 3.1159 -3.0553 -4.2890 4.0042 7.7495 -2.9464 2.1351 3.4166 0.0000 -0.0000 0.0000 -87.2710 -1.2011 -12.9876 15.2113 -24.4396 -3.3129 -0.0000 -0.0000 6.1604 17.3542 10.0779 3.1300 -7.1250 0.0000 -0.0000 -8.4982 40.3842 0.9752 0.0000 -0.0000 0.0000 85.0092 -9.4545 4.1189 -17.7021 27.7741 -4.4096 0.0000 -0.0000 -19.0637 -14.8837 0.7267 -0.1931 7.1250 -0.0000 -0.0000 9.1129 -29.1727 3.5558
-25.2774 14.9897 -8.6087 3.5691 79.6367 1.4324 0.0000 0.0000 0.0000 -24.5335 -16.7262 -0.2381 2.6290 10.0688 29.1999 2.1437 17.8210 -38.6422 0.0515 1.4642 4.0270 0.0000 0.0000 0.0000 25.1231 17.2888 -0.5859 -2.5174 -9.8694 28.5549 -2.9526 -19.2462 -43.4592 -0.2633 3.3009 -9.1175 -1.0504 1.9049 5.1714 -2.1760 2.5628 3.0830 -1.7666 1.3195 0.3274 9.3007 3.1251 -3.1291 -4.3044 4.0115 7.7518 -2.9464 2.1364 3.4318 0.0000 -0.0000 0.0000 -87.1955 -1.1971 -12.8402 15.1978 -24.4210 -3.3073 -0.0000 -0.0000 6.1999 17.4261 10.1293 3.1597 -7.1250 0.0000 -0.0000 -8.4450 40.4435 0.9565 0.0000 -0.0000 0.0000 84.9794 -9.4326 4.1118 -17.7193 27.7963 -4.4176 0.0000 -0.0000 -19.1054 -14.9987 0.6931 -0.1857 7.1250 -0.0000 -0.0000 9.0267 -29.2078 3.5138
-25.2758 14.9891 -8.6108 3.9201 79.6007 1.7806 0.0000 0.0000 0.0000 -24.6135 -16.6829 -0.2218 2.6221 10.0566 29.1601 2.1401 17.8304 -38.6324 0.0525 1.4792 4.0685 0.0000 0.0000 0.0000 25.0386 17.2947 -0.5984 -2.5243 -9.8820 28.5954 -2.9796 -19.1254 -43.4795 -0.2513 3.2255 -8.9072 -1.1408 1.8981 5.1947 -2.1733 2.5511 3.1131 -1.7130 1.3129 0.3412 9.2815 3.1372 -3.1935 -4.3323 4.0243 7.7557 -2.9515 2.1403 3.4469 -0.0000 -0.0000 0.0000 -87.1255 -1.1908 -12.6950 15.1874 -24.4065 -3.3030 -0.0000 -0.0000 6.2309 17.4660 10.1605 3.1770 -7.1250 0.0000 -0.0000 -8.4159 40.4791 0.9457 -0.0000 -0.0000 0.0000 84.9382 -9.4240 4.1451 -17.7426 27.8263 -4.4284 0.0000 -0.0000 -19.1685 -15.1136 0.6026 -0.1627 7.1250 -0.0000 -0.0000 8.9456 -29.3011 3.4614
-25.2740 14.9884 -8.6129 4.1271 79.5601 1.9976 0.0000 0.0000 0.0000 -24.6609 -16.6435 -0.2273 2.6185 10.0502 29.1396 2.1417 17.8162 -38.6280 0.0542 1.5019 4.1310 0.0000 0.0000 0.0000 24.9808 17.3141 -0.6097 -2.5278 -9.8883 28.6158 -2.9928 -19.0473 -43.4750 -0.2448 3.1841 -8.7917 -1.2131 1.8894 5.2019 -2.1592 2.5371 3.1313 -1.6573 1.3050 0.3519 9.2827 3.1500 -3.1889 -4.3840 4.0453 7.7357 -2.9688 2.1485 3.4427 0.0000 -0.0000 0.0000 -87.0622 -1.1534 -12.5683 15.1857 -24.4042 -3.3023 -0.0000 -0.0000 6.2677 17.4352 10.1441 3.1660 -7.1250 0.0000 -0.0000 -8.4398 40.4595 0.9526 0.0000 -0.0000 0.0000 84.8838 -9.4404 4.2095 -17.7645 27.8545 -4.4386 0.0000 -0.0000 -19.2320 -15.1941 0.4957 -0.1346 7.1250 -0.0000 -0.0000 8.8924 -29.4111 3.4168
-25.2720 14.9880 -8.6153 4.1936 79.5143 2.0907 0.0000 0.0000 0.0000 -24.6783 -16.6143 -0.2520 2.6172 10.0479 29.1319 2.1434 17.8016 -38.6240 0.0555 1.5201 4.1811 0.0000 0.0000 0.0000 24.9455 17.3404 -0.6297 -2.5285 -9.8895 28.6197 -2.9884 -19.0197 -43.4351 -0.2454 3.1879 -8.8022 -1.2622 1.8782 5.1886 -2.1373 2.5203 3.1339 -1.6060 1.2956 0.3586 9.3022 3.1624 -3.1053 -4.4509 4.0732 7.6893 -2.9951 2.1607 3.4156 0.0000 -0.0000 0.0000 -87.0045 -1.0812 -12.4764 15.1923 -24.4134 -3.3050 -0.0000 -0.0000 6.3224 17.3332 10.0663 3.1225 -7.1250 0.0000 -0.0000 -8.5143 40.3705 0.9799 0.0000 -0.0000 0.0000 84.8219 -9.4826 4.2899 -17.7819 27.8770 -4.4468 0.0000 -0.0000 -19.2832 -15.2264 0.4040 -0.1100 7.1250 -0.0000 -0.0000 8.8755 -29.5052 3.3900
-25.2695 14.9883 -8.6178 4.1827 79.4640 2.1230 0.0000 0.0000 0.0000 -24.6789 -16.5945 -0.2896 2.6161 10.0460 29.1258 2.1422 17.8009 -38.6179 0.0559 1.5251 4.1949 0.0000 0.0000 0.0000 24.9203 17.3719 -0.6628 -2.5280 -9.8886 28.6169 -2.9707 -19.0329 -43.3705 -0.2526 3.2337 -8.9300 -1.2958 1.8654 5.1503 -2.1140 2.5018 3.1240 -1.5613 1.2853 0.3669 9.3298 3.1742 -2.9668 -4.5126 4.1046 7.6306 -3.0213 2.1755 3.3742 -0.0000 0.0000 0.0000 -86.9476 -0.9858 -12.4203 15.2025 -24.4274 -3.3092 -0.0000 -0.0000 6.3996 17.1837 9.9462 3.0574 -7.1250 0.0000 -0.0000 -8.6224 40.2341 1.0218 -0.0000 0.0000 0.0000 84.7643 -9.5309 4.3495 -17.7868 27.8833 -4.4491 0.0000 -0.0000 -19.3038 -15.2158 0.3267 -0.0889 7.1250 -0.0000 -0.0000 8.8906 -29.5843 3.3790
